<svg width="1200" height="800" viewBox="0 0 1200 800" fill="none" xmlns="http://www.w3.org/2000/svg">
  <!-- Browser Extension Mockup - Dark Mode -->

  <!-- Background -->
  <rect width="1200" height="800" fill="#0A0E27"/>

  <!-- Browser Window -->
  <g id="browser-window">
    <!-- Window Frame -->
    <rect x="100" y="100" width="1000" height="600" rx="12" fill="#131728" stroke="rgba(255, 184, 77, 0.1)" stroke-width="2"/>

    <!-- Browser Toolbar -->
    <rect x="100" y="100" width="1000" height="50" rx="12" fill="#1A1F35"/>
    <line x1="100" y1="150" x2="1100" y2="150" stroke="rgba(255, 184, 77, 0.1)" stroke-width="1"/>

    <!-- Browser Dots -->
    <circle cx="120" cy="125" r="6" fill="#FF5F56"/>
    <circle cx="140" cy="125" r="6" fill="#FFBD2E"/>
    <circle cx="160" cy="125" r="6" fill="#27C93F"/>

    <!-- Address Bar -->
    <rect x="200" y="115" width="800" height="20" rx="10" fill="#0A0E27" stroke="rgba(255, 184, 77, 0.2)" stroke-width="1"/>
    <text x="220" y="129" font-family="monospace" font-size="12" fill="#666">chrome-extension://lucent-preview</text>

    <!-- Extension Icon in Toolbar (Right side) -->
    <g transform="translate(1025, 110)">
      <rect width="30" height="30" rx="6" fill="#FFB84D"/>

      <!-- Lucent Mini Icon -->
      <g transform="translate(5, 5) scale(0.2)">
        <path d="M 10 10 L 10 90 L 60 90"
              stroke="#0A0E27"
              stroke-width="18"
              stroke-linecap="round"
              stroke-linejoin="round"
              fill="none"/>
        <path d="M 90 30 Q 90 10 70 10 Q 50 10 50 30 L 50 70 Q 50 90 70 90 Q 90 90 90 70"
              stroke="#0A0E27"
              stroke-width="18"
              stroke-linecap="round"
              fill="none"/>
        <circle cx="50" cy="50" r="8" fill="#0A0E27"/>
      </g>
    </g>
  </g>

  <!-- Extension Popup -->
  <g id="extension-popup">
    <!-- Popup Shadow -->
    <rect x="920" y="160" width="320" height="450" rx="12" fill="#000" opacity="0.3" transform="translate(5, 5)"/>

    <!-- Popup Window -->
    <rect x="920" y="160" width="320" height="450" rx="12" fill="#131728" stroke="rgba(255, 184, 77, 0.2)" stroke-width="2"/>

    <!-- Popup Header -->
    <rect x="920" y="160" width="320" height="70" rx="12" fill="#1A1F35"/>
    <rect x="920" y="218" width="320" height="12" fill="#1A1F35"/>

    <!-- Lucent Logo in Header -->
    <g transform="translate(950, 180)">
      <!-- Mini icon -->
      <g transform="scale(0.25)">
        <path d="M 8 8 L 8 72 L 48 72"
              stroke="#FFFFFF"
              stroke-width="14"
              stroke-linecap="round"
              stroke-linejoin="round"
              fill="none"/>
        <path d="M 72 24 Q 72 8 56 8 Q 40 8 40 24 L 40 56 Q 40 72 56 72 Q 72 72 72 56"
              stroke="#FFFFFF"
              stroke-width="14"
              stroke-linecap="round"
              fill="none"/>
        <circle cx="40" cy="40" r="6" fill="#FFB84D"/>
      </g>

      <text x="30" y="20" font-family="Inter, sans-serif" font-size="18" font-weight="600" fill="#FFFFFF">
        Lucent
      </text>
    </g>

    <!-- Transaction Preview Content -->
    <g id="popup-content" transform="translate(940, 250)">
      <!-- Status Badge -->
      <rect x="0" y="0" width="80" height="24" rx="12" fill="#27C93F" opacity="0.15"/>
      <circle cx="12" cy="12" r="4" fill="#27C93F"/>
      <text x="22" y="16" font-family="Inter, sans-serif" font-size="12" font-weight="600" fill="#27C93F">
        ✓ Safe
      </text>

      <!-- Transaction Details -->
      <text x="0" y="50" font-family="Inter, sans-serif" font-size="14" font-weight="600" fill="#FFFFFF">
        Transaction Preview
      </text>

      <text x="0" y="75" font-family="Inter, sans-serif" font-size="12" fill="#999">
        You are swapping:
      </text>

      <!-- Token amounts -->
      <rect x="0" y="85" width="280" height="50" rx="8" fill="rgba(255, 255, 255, 0.05)"/>
      <text x="15" y="107" font-family="Inter, sans-serif" font-size="16" font-weight="600" fill="#FFFFFF">
        10 STX
      </text>
      <text x="15" y="125" font-family="Inter, sans-serif" font-size="12" fill="#666">
        ≈ $15.50 USD
      </text>
      <text x="260" y="110" font-family="monospace" font-size="20" fill="#FFB84D">
        →
      </text>

      <rect x="0" y="145" width="280" height="50" rx="8" fill="rgba(255, 255, 255, 0.05)"/>
      <text x="15" y="167" font-family="Inter, sans-serif" font-size="16" font-weight="600" fill="#FFFFFF">
        45.23 ALEX
      </text>
      <text x="15" y="185" font-family="Inter, sans-serif" font-size="12" fill="#666">
        ≈ $15.42 USD
      </text>

      <!-- Security Info -->
      <text x="0" y="225" font-family="Inter, sans-serif" font-size="12" font-weight="600" fill="#FFFFFF">
        Security Details
      </text>

      <text x="0" y="245" font-family="Inter, sans-serif" font-size="11" fill="#999">
        ✓ Contract verified
      </text>
      <text x="0" y="265" font-family="Inter, sans-serif" font-size="11" fill="#999">
        ✓ No unlimited approvals
      </text>
      <text x="0" y="285" font-family="Inter, sans-serif" font-size="11" fill="#999">
        ✓ 10,234 transactions
      </text>

      <!-- Action Buttons -->
      <rect x="0" y="310" width="130" height="40" rx="8" fill="rgba(255, 255, 255, 0.1)"/>
      <text x="45" y="335" font-family="Inter, sans-serif" font-size="14" font-weight="600" fill="#999">
        Reject
      </text>

      <rect x="145" y="310" width="135" height="40" rx="8" fill="#FFB84D"/>
      <text x="175" y="335" font-family="Inter, sans-serif" font-size="14" font-weight="600" fill="#0A0E27">
        Approve
      </text>
    </g>
  </g>

  <!-- Badge/Label -->
  <g transform="translate(100, 730)">
    <text font-family="Inter, sans-serif" font-size="24" font-weight="700" fill="#FFFFFF">
      Browser Extension
    </text>
    <text y="30" font-family="Inter, sans-serif" font-size="14" fill="#999">
      Real-time transaction preview before you sign
    </text>
  </g>
</svg>
